<?xml version="1.0" encoding="UTF-8" standalone="no"?>
<svg
   version="1.1"
   id="Layer_1"
   x="0px"
   y="0px"
   width="85px"
   height="85px"
   viewBox="0 0 80 80"
   enable-background="new 0 0 80 80"
   xml:space="preserve"
   sodipodi:docname="logo.svg"
   inkscape:version="1.2.2 (732a01da63, 2022-12-09)"
   xmlns:inkscape="http://www.inkscape.org/namespaces/inkscape"
   xmlns:sodipodi="http://sodipodi.sourceforge.net/DTD/sodipodi-0.dtd"
   xmlns="http://www.w3.org/2000/svg"
   xmlns:svg="http://www.w3.org/2000/svg"><defs
   id="defs26" /><sodipodi:namedview
   id="namedview24"
   pagecolor="#ffffff"
   bordercolor="#000000"
   borderopacity="0.25"
   inkscape:showpageshadow="2"
   inkscape:pageopacity="0.0"
   inkscape:pagecheckerboard="0"
   inkscape:deskcolor="#d1d1d1"
   showgrid="false"
   inkscape:zoom="9.9176471"
   inkscape:cx="19.964413"
   inkscape:cy="42.550415"
   inkscape:window-width="1920"
   inkscape:window-height="1001"
   inkscape:window-x="1991"
   inkscape:window-y="-9"
   inkscape:window-maximized="1"
   inkscape:current-layer="Layer_1" />
	<g
   id="g17">
		<path
   fill="#FFFFFF"
   d="M40,0c22.091,0,40,17.909,40,40S62.091,80,40,80S0,62.091,0,40S17.909,0,40,0z"
   id="path15" />
	</g>
	<g
   id="g21">
		<path
   fill="#8cc9f0"
   d="M50.378,32.576c0,1.005-0.815,1.821-1.821,1.821c-1.005,0-1.82-0.816-1.82-1.821    c0-1.005,0.815-1.821,1.82-1.821C49.563,30.755,50.378,31.571,50.378,32.576z M54.627,27.113c0-0.341-0.304-0.607-0.646-0.607    c-6.601,0-10.223,1.518-14.964,6.241c-1.081,1.1-2.2,2.352-3.338,3.699l-7.188,0.379c-0.19,0.019-0.379,0.133-0.493,0.304    l-4.249,7.284c-0.133,0.228-0.095,0.53,0.095,0.739l1.214,1.215c0.114,0.113,0.285,0.17,0.437,0.17c0.057,0,0.114,0,0.17-0.02    l5.235-1.611l5.33,5.33l-1.612,5.236c-0.057,0.209,0,0.437,0.152,0.606l1.214,1.214c0.133,0.114,0.284,0.171,0.436,0.171    c0.114,0,0.208-0.021,0.304-0.075l7.283-4.25c0.171-0.113,0.284-0.304,0.305-0.492l0.379-7.19c1.347-1.138,2.599-2.257,3.699-3.339    C52.882,37.603,54.627,33.411,54.627,27.113z"
   id="path19" />
	</g>
<path
   style="fill:#22577a;stroke-width:0.10083;fill-opacity:1;stroke:#38a3a5;stroke-opacity:1"
   d="m 38.567616,60.976083 c -0.08319,-0.026 -0.502892,-0.39265 -0.932681,-0.814771 -0.565604,-0.555513 -0.78142,-0.837771 -0.781379,-1.021936 3e-5,-0.139942 0.384572,-1.502217 0.854537,-3.027276 l 0.854482,-2.772835 -2.845938,-2.845938 -2.845937,-2.845938 -2.772835,0.854482 c -1.52506,0.469965 -2.889564,0.854507 -3.032233,0.854538 -0.192627,4.2e-5 -0.473717,-0.219516 -1.092005,-0.852958 -0.680627,-0.69731 -0.820062,-0.892538 -0.763883,-1.069543 0.149738,-0.471782 4.709197,-8.154022 4.868795,-8.203441 0.09381,-0.02905 1.509094,-0.121284 3.145067,-0.204968 1.635973,-0.08368 3.367379,-0.180056 3.847568,-0.214163 l 0.873073,-0.06201 1.211269,-1.376441 c 1.218005,-1.384094 3.465498,-3.660917 4.403203,-4.460665 0.739156,-0.63041 2.229691,-1.715896 2.924081,-2.12947 2.82129,-1.680341 5.303471,-2.338452 9.645938,-2.55747 l 1.377849,-0.06949 0.266636,0.266637 0.266637,0.266637 -0.06342,1.233763 c -0.08304,1.615296 -0.309322,3.443118 -0.558426,4.510751 -0.660973,2.832857 -1.949414,5.461136 -3.830769,7.814353 -0.918194,1.148485 -3.141403,3.396923 -4.749737,4.803634 l -1.37602,1.203522 -0.062,0.878392 c -0.0341,0.483114 -0.130422,2.216914 -0.214046,3.852886 -0.08362,1.635973 -0.198399,3.065243 -0.255056,3.176157 -0.08536,0.167107 -7.528631,4.606319 -8.0481,4.799936 -0.08988,0.0335 -0.231477,0.03963 -0.314662,0.01363 z M 52.411397,36.414782 c 0.447481,-0.18697 0.946578,-0.783199 1.084564,-1.29564 0.394825,-1.466274 -0.995456,-2.840016 -2.437087,-2.408093 -0.49152,0.147263 -1.083798,0.65697 -1.263692,1.087518 -0.296983,0.710781 -0.0874,1.805548 0.432819,2.260877 0.551504,0.482709 1.506556,0.63814 2.183396,0.355338 z"
   id="path949"
   transform="scale(0.94117647)" /></svg>
